<?xml version="1.0" encoding="iso-8859-1"?>
<!-- Uploaded to: SVG Repo, www.svgrepo.com, Generator: SVG Repo Mixer Tools -->
<svg fill="#000000" height="800px" width="800px" version="1.1" id="Layer_1" xmlns="http://www.w3.org/2000/svg" xmlns:xlink="http://www.w3.org/1999/xlink" 
	 viewBox="0 0 512 512" xml:space="preserve">
<g>
	<g>
		<polygon points="397.909,223.884 397.909,136.781 114.091,136.781 114.091,223.884 239.304,223.884 239.304,377.991 
			195.969,377.991 195.969,411.382 316.031,411.382 316.031,377.991 272.696,377.991 272.696,223.884 		"/>
	</g>
</g>
<g>
	<g>
		<path d="M99.156,239.311H59.262c-9.271,0-18.049,2.144-25.87,5.956V100.618H0v197.955v16.696v92.662h33.391V315.27h91.635v92.662
			h33.391V315.27v-16.696C158.417,265.896,131.832,239.311,99.156,239.311z"/>
	</g>
</g>
<g>
	<g>
		<path d="M478.609,100.618v144.649c-7.823-3.812-16.6-5.956-25.87-5.956h-39.894c-32.677,0-59.262,26.585-59.262,59.262v16.696
			v92.662h33.391V315.27h91.635v92.662H512V315.27v-16.696V100.618H478.609z"/>
	</g>
</g>
</svg>